<svg width="65" height="35" viewBox="0 0 65 35" fill="none" xmlns="http://www.w3.org/2000/svg">
<path d="M35.2035 29.6484C43.6001 29.6484 50.4069 23.0113 50.4069 14.8242C50.4069 6.63701 43.6001 0 35.2035 0C26.8068 0 20 6.63701 20 14.8242C20 23.0113 26.8068 29.6484 35.2035 29.6484Z" fill="#0D8774"/>
<path d="M0 22.1634C4.82982 22.9825 12.4553 23.0079 21.5311 21.195C21.3105 20.7584 21.0932 20.3885 20.9456 19.9488C15.3701 21.4887 5.44386 22.8349 0 22.1618V22.1634Z" fill="#0D8774"/>
<path d="M21.0456 19.9218C21.0123 19.9313 20.979 19.9393 20.9473 19.9488C21.0948 20.3885 21.3122 20.7568 21.5327 21.195C21.5708 21.187 21.6089 21.1807 21.647 21.1728C33.593 18.0168 37.7422 23.373 46.6386 21.7728C36.5426 21.9236 33.9929 16.1213 21.0472 19.9218H21.0456Z" fill="#FCFCFC"/>
<path d="M49.136 18.2723C49.0805 18.2628 49.136 18.2723 49.0805 18.2628C48.9996 19.4153 48.4617 20.5758 47.7905 21.5172C54.1198 21.1441 56.3808 19.0185 64.9313 18.1231C58.6338 17.2722 57.9325 19.9233 49.136 18.2739V18.2723Z" fill="#0D8774"/>
<path d="M24.3444 11.1699C24.3444 11.1699 29.5931 10.1698 33.7914 13.421C24.9949 9.92053 22.9957 13.2702 21.0964 19.3726C28.2444 14.9879 40.6728 21.9126 47.6874 21.5236C47.6954 21.5236 47.7049 21.5236 47.7144 21.5236C47.7414 21.5236 47.7668 21.5205 47.7921 21.5189C48.4633 20.5775 49.044 19.4678 49.2519 18.2962C38.0944 16.1452 35.0639 2.81324 24.3459 11.1731L24.3444 11.1699Z" fill="#FCFCFC"/>
<path d="M56.4331 18.1724C60.4823 15.4212 62.2308 15.9213 63.1304 17.3723C60.9805 17.1834 56.4331 18.1724 56.4331 18.1724Z" fill="#0D8774"/>
</svg>
