<svg width="48" height="35" viewBox="0 0 48 35" fill="none" xmlns="http://www.w3.org/2000/svg">
<path fill-rule="evenodd" clip-rule="evenodd" d="M48 0.00147914C45.6929 7.69727 42.6831 15.6652 37.7135 21.663C32.191 27.7776 23.5293 28.0927 17.56 28.3914C11.5908 28.6902 6.75059 28.637 3.59233 30.3483C0.432715 32.0581 0.017334 34.9986 0.017334 34.9986L0.331942 33.1793L2.5137 29.7729L13.763 25.6492L30.0105 23.1702L40.6416 16.0276L44.7641 7.91765L47.255 1.76162L48 0V0.00147914Z" fill="black"/>
<path fill-rule="evenodd" clip-rule="evenodd" d="M43.1598 10.7013C43.1789 10.6984 41.7448 13.5915 38.9761 15.4463C37.0721 16.7213 34.6098 17.4682 31.9718 17.5865C28.4131 17.7463 25.4347 17.5422 23.178 18.085C21.0725 18.5909 19.2271 19.3733 18.5543 22.6599C18.5543 22.6599 18.3405 19.3881 22.0353 17.3913C25.7302 15.396 35.0007 16.208 38.0472 14.5958C39.3084 13.9287 40.4932 13.34 41.5364 12.4112C42.1438 11.8698 42.6695 11.4275 43.1585 10.6998L43.1598 10.7013Z" fill="black"/>
<path fill-rule="evenodd" clip-rule="evenodd" d="M26.7976 13.9139C26.2583 13.1241 25.1306 11.4083 19.9595 13.2705C16.0141 14.6904 12.7046 16.0379 9.69482 15.3442C7.80859 14.9093 6.43987 13.5234 5.11338 12.0458C3.12363 9.82862 1.70181 7.56411 1.79578 7.50494L2.83628 8.92193L5.91825 11.9999L11.1098 14.4982L19.2486 12.6005L23.7946 11.7145L25.226 12.1582L26.2379 12.9377L26.5824 13.4332L26.7445 13.7616L26.7949 13.9154L26.7976 13.9139Z" fill="black"/>
<path fill-rule="evenodd" clip-rule="evenodd" d="M1.80413 7.50208C1.80413 7.50208 5.84218 13.2247 10.5966 13.1981C13.4198 13.1818 16.7524 12.2367 19.5702 11.6894C20.7455 11.4616 21.9099 11.3108 22.8415 11.3049C24.2796 11.2945 26.5513 12.0917 26.7992 13.914C26.7992 13.914 25.7396 10.8641 20.3601 12.6893C15.8835 14.2083 12.0947 15.4685 9.13254 14.5633C8.43797 14.3518 7.80876 14.0101 7.24629 13.6137C6.02467 12.7499 4.99371 11.5267 3.99679 10.3641C2.63353 8.77263 1.68156 7.47989 1.80413 7.50355V7.50208Z" fill="#FF7506"/>
<path fill-rule="evenodd" clip-rule="evenodd" d="M0.0159954 34.9999C0.0159954 34.9999 -0.265913 32.8478 1.53725 30.5078C2.7725 28.906 5.10408 27.1932 8.69133 26.109C17.5206 23.4377 29.173 22.429 32.8937 20.6052C36.6131 18.78 39.9933 15.986 41.5745 13.4079C43.1557 10.8313 43.1175 10.7499 43.1434 10.7455C43.1611 10.7425 41.8768 13.1964 39.0359 14.9107C37.8374 15.634 36.022 16.5007 34.3632 16.6989C28.774 17.3689 25.549 16.8572 23.0662 17.5745C20.5835 18.2919 19.6873 19.3613 19.1058 20.6452C18.5243 21.9275 18.5542 22.6612 18.5542 22.6612C18.5542 22.6612 18.2546 18.9945 21.9508 16.9992C25.6457 15.0039 35.3166 14.8204 38.3631 13.2067C39.6256 12.5382 40.8105 11.951 41.8537 11.0221C43.33 9.7057 44.2956 7.95739 45.5458 5.20182C47.6799 0.49974 47.9986 0.00128174 47.9986 0.00128174C45.6057 6.91166 42.7675 15.026 38.0281 20.2724C32.5056 26.3856 23.8439 26.9476 17.8746 27.2464C11.9054 27.5452 6.83096 27.9667 3.6727 29.6766C0.513087 31.3879 0.0159954 34.9984 0.0159954 34.9984V34.9999Z" fill="#FF7506"/>
</svg>
