<svg width="34" height="35" viewBox="0 0 34 35" fill="none" xmlns="http://www.w3.org/2000/svg">
<path d="M33.6039 6.00108H31.0997C30.763 6.64327 30.0909 7.08056 29.3158 7.08056C28.5406 7.08056 27.8699 6.6419 27.5318 6.00108H25.1252C25.1252 6.00108 25.2503 24.6851 15.7366 26.0808C15.5497 26.0973 15.36 26.107 15.1676 26.107C11.7247 26.107 8.93329 23.3141 8.93329 19.868C8.93329 16.4219 11.7247 13.629 15.1676 13.629C15.9703 13.629 16.7358 13.783 17.4409 14.058C17.4299 14.0539 17.4175 14.0484 17.4065 14.0443C17.4065 14.0443 17.4711 14.0663 17.5838 14.1144C17.6704 14.1515 17.757 14.19 17.8408 14.2299C17.7611 14.1928 17.6828 14.1556 17.6017 14.1213C18.2133 14.3798 20.1443 15.3259 21.6713 17.4876C21.8871 17.3583 24.2882 11.0368 23.3756 7.19333C21.002 5.64355 18.1679 4.74146 15.1222 4.74146C6.77409 4.74146 0.00512695 11.5126 0.00512695 19.8666C0.00512695 28.2206 6.77271 34.9917 15.1222 34.9917C20.7312 34.9917 25.6255 31.9348 28.2355 27.3968C28.2355 27.3968 33.8719 19.5531 33.6039 5.99833V6.00108Z" fill="#FF7506"/>
<path d="M24.6813 33.149V34.9999H33.6136V18.7114C32.1017 24.5764 29.1481 30.3671 24.6813 33.149Z" fill="url(#paint0_linear_2262_13386)"/>
<path d="M29.3158 3.04868C30.293 3.04868 31.1067 3.74312 31.2909 4.66584C32.0674 4.74972 32.844 4.88036 33.6136 5.06463L29.2719 0L25.0181 5.055C25.7822 4.87624 26.5588 4.7456 27.3408 4.66309C27.5264 3.74175 28.34 3.04868 29.3158 3.04868Z" fill="url(#paint1_linear_2262_13386)"/>
<path d="M15.1237 34.9932C20.7326 34.9932 25.6269 31.9362 28.2369 27.3983C28.2369 27.3983 33.8733 19.5545 33.6053 5.99976H31.1012C30.7644 6.64195 30.0923 7.07924 29.3172 7.07924C28.542 7.07924 27.8713 6.64057 27.5332 5.99976H25.1266C25.1266 5.99976 25.2517 24.6837 15.738 26.0795L15.1237 34.9918V34.9932Z" fill="url(#paint2_linear_2262_13386)"/>
<path d="M15.7366 26.0808C15.6047 26.0987 15.36 26.107 15.1676 26.107C11.7247 26.107 8.93329 23.3141 8.93329 19.868C8.93329 16.4219 11.7247 13.629 15.1676 13.629C15.9703 13.629 16.7358 13.783 17.4409 14.058C17.4299 14.0539 17.4175 14.0484 17.4065 14.0443C17.4065 14.0443 17.4711 14.0663 17.5838 14.1144C17.6704 14.1515 17.757 14.19 17.8408 14.2299C17.7611 14.1928 17.6828 14.1556 17.6017 14.1213C18.2133 14.3798 20.1443 15.3259 21.6713 17.4876C21.8871 17.3583 24.2882 11.0368 23.3756 7.19333C21.002 5.64355 18.1679 4.74146 15.1222 4.74146C6.77409 4.74146 0.00512695 11.5126 0.00512695 19.8666C0.00512695 28.2206 6.77271 34.9917 15.1222 34.9917C20.7312 34.9917 25.6255 31.9348 28.2355 27.3968C28.2355 27.3968 30.8084 23.9342 32.4453 17.1012C28.5433 22.2291 22.8519 25.9034 15.7366 26.0795V26.0808Z" fill="url(#paint3_linear_2262_13386)"/>
<path d="M5.01624 31.1152C3.26112 25.9804 3.28998 14.1075 15.1676 13.6303C15.9222 13.6289 16.7358 13.7843 17.4409 14.0594C17.4299 14.0552 17.4175 14.0497 17.4065 14.0456C17.4065 14.0456 17.4711 14.0676 17.5838 14.1157C17.6704 14.1529 17.757 14.1914 17.8408 14.2312C17.7611 14.1941 17.6828 14.157 17.6017 14.1226C18.2133 14.3811 20.1443 15.3272 21.6713 17.4889C21.8871 17.3597 24.2882 11.0382 23.3756 7.19467C21.002 5.64489 18.1679 4.7428 15.1223 4.7428C6.7741 4.7428 0.00513778 11.514 0.00513778 19.8679C0.00513778 19.8679 -0.357696 26.4425 5.01487 31.1152H5.01624Z" fill="url(#paint4_linear_2262_13386)"/>
<defs>
<linearGradient id="paint0_linear_2262_13386" x1="30.0676" y1="27.775" x2="34.7169" y2="32.4218" gradientUnits="userSpaceOnUse">
<stop stop-color="#C84614"/>
<stop offset="1" stop-color="#FF7506"/>
</linearGradient>
<linearGradient id="paint1_linear_2262_13386" x1="32.0715" y1="5.37404" x2="26.7608" y2="2.30854" gradientUnits="userSpaceOnUse">
<stop stop-color="#C84614"/>
<stop offset="1" stop-color="#FF7506"/>
</linearGradient>
<linearGradient id="paint2_linear_2262_13386" x1="24.214" y1="25.986" x2="24.8428" y2="7.2264" gradientUnits="userSpaceOnUse">
<stop stop-color="#C84614"/>
<stop offset="1" stop-color="#FF7506"/>
</linearGradient>
<linearGradient id="paint3_linear_2262_13386" x1="7.07508" y1="17.2181" x2="17.9505" y2="20.7955" gradientUnits="userSpaceOnUse">
<stop stop-color="#C84614"/>
<stop offset="1" stop-color="#FF7506"/>
</linearGradient>
<linearGradient id="paint4_linear_2262_13386" x1="23.7453" y1="12.7557" x2="5.80861" y2="18.9558" gradientUnits="userSpaceOnUse">
<stop stop-color="#C84614"/>
<stop offset="1" stop-color="#FF7506"/>
</linearGradient>
</defs>
</svg>
