<svg width="271" height="108" viewBox="0 0 271 108" fill="none" xmlns="http://www.w3.org/2000/svg">
<g clip-path="url(#clip0_34_14119)">
<path d="M81.2576 -16.7538C81.2576 -16.7538 80.8473 -15.5344 80.2375 -13.7124C80.0834 -13.2567 79.9215 -12.7615 79.7439 -12.2387C79.5599 -11.7151 79.3452 -11.1811 79.1408 -10.6164C78.7051 -9.49646 78.2806 -8.28809 77.7953 -7.10409C77.3029 -5.92562 76.8042 -4.74634 76.3409 -3.64211C75.8713 -2.53708 75.3754 -1.53778 74.9789 -0.666518C74.1928 1.08153 73.5906 2.20334 73.5906 2.20334C73.5906 2.20334 73.0097 3.34169 72.1407 5.0425C71.1967 6.7079 70.0128 8.96173 68.6567 11.1219C68.3275 11.6639 67.9992 12.2122 67.6755 12.7471C67.3447 13.2765 66.9927 13.7893 66.6705 14.2855C66.0073 15.2803 65.4214 16.2268 64.8653 17.0028C63.7601 18.5603 63.0196 19.6034 63.0196 19.6034C63.0196 19.6034 62.8416 19.8697 62.5067 20.3161C62.1648 20.7571 61.6866 21.3885 61.1028 22.1488C60.8113 22.5321 60.4977 22.9438 60.1676 23.3768C59.8311 23.8107 59.4568 24.2494 59.0794 24.7141C58.702 25.1788 58.3064 25.6522 57.9124 26.1383C57.7123 26.3817 57.5121 26.6251 57.312 26.8685L56.6784 27.5902C55.8304 28.5442 55.0038 29.5148 54.192 30.4001C53.3724 31.2735 52.6031 32.0893 51.9474 32.7881C51.2917 33.4868 50.7068 34.0355 50.315 34.4379C49.9162 34.8348 49.6947 35.0616 49.6947 35.0616C49.6947 35.0616 49.4669 35.2893 49.0744 35.6854C48.689 36.0869 48.0906 36.6309 47.3906 37.284C46.0064 38.6137 44.0797 40.3201 42.13 41.9972C41.1366 42.8157 40.1503 43.6396 39.2144 44.4059C38.2628 45.1486 37.3694 45.8453 36.6101 46.4353C35.8587 47.0371 35.1924 47.4999 34.7413 47.8392C34.2832 48.173 34.0254 48.366 34.0254 48.366C34.0254 48.366 33.7675 48.559 33.3094 48.8928C32.8591 49.2384 32.192 49.6948 31.3955 50.2446C29.8121 51.3687 27.6521 52.803 25.4676 54.1955C24.3603 54.8744 23.2617 55.5715 22.2191 56.2037C21.1678 56.8178 20.1827 57.3979 19.3403 57.8893C17.6327 58.843 16.4946 59.4809 16.4946 59.4809C16.4946 59.4809 16.213 59.6384 15.709 59.9139C15.2113 60.1885 14.4825 60.563 13.6164 61.0189C12.7504 61.4749 11.7407 62.0132 10.6348 62.5508C9.53601 63.0939 8.37335 63.69 7.17903 64.2388C4.81414 65.3719 2.41441 66.4324 0.608678 67.2189C-1.20576 67.9873 -2.41749 68.4998 -2.41749 68.4998C-2.41749 68.4998 -3.63874 68.9878 -5.4706 69.7199C-7.31038 70.4402 -9.77739 71.3745 -12.2705 72.2543C-17.2418 74.0314 -22.3232 75.5466 -22.3232 75.5466C-22.3232 75.5466 -23.588 75.944 -25.5022 76.4812C-26.4546 76.762 -27.5695 77.0763 -28.7736 77.3954C-29.9698 77.7263 -31.2552 78.0621 -32.5422 78.3853C-35.1146 79.0442 -37.7006 79.6472 -39.6465 80.0858C-41.5941 80.5117 -42.893 80.7915 -42.893 80.7915C-42.893 80.7915 -48.0957 81.9051 -53.3493 82.7685C-55.9734 83.2223 -58.6062 83.6067 -60.5847 83.889C-62.5594 84.1516 -63.8782 84.3248 -63.8782 84.3248C-63.8782 84.3248 -69.1605 85.0123 -74.4313 85.4352C-77.0659 85.653 -79.688 85.8179 -81.6274 85.9029C-83.401 85.9797 -84.585 86.0012 -84.675 85.9997L-84.6695 87.0575C-84.7848 87.0592 -83.5352 87.0487 -81.5832 86.9622C-79.6312 86.8756 -76.9957 86.7154 -74.3492 86.4897C-69.0531 86.0636 -63.7519 85.3737 -63.7519 85.3737C-63.7519 85.3737 -62.4268 85.1997 -60.4403 84.9292C-58.4554 84.646 -55.81 84.2601 -53.1797 83.8055C-47.9079 82.9334 -42.6799 81.8166 -42.6799 81.8166C-42.6799 81.8166 -41.3747 81.536 -39.4208 81.1093C-37.4686 80.6699 -34.87 80.0653 -32.2858 79.3985C-30.9933 79.0682 -29.7007 78.7379 -28.499 78.3998C-27.2886 78.0799 -26.1673 77.7649 -25.215 77.4841C-23.2952 76.9397 -22.0241 76.5416 -22.0241 76.5416C-22.0241 76.5416 -16.9175 75.0232 -11.9218 73.2366C-9.41599 72.3551 -6.94346 71.4137 -5.09106 70.6919C-3.24738 69.9519 -2.01981 69.463 -2.01981 69.463C-2.01981 69.463 -0.801766 68.9497 1.0253 68.1798C2.84366 67.3917 5.26154 66.3224 7.63194 65.1822C8.83257 64.6326 10.0015 64.0357 11.1059 63.4855C12.2181 62.9471 13.234 62.408 14.1056 61.945C14.9772 61.4819 15.706 61.1074 16.21 60.832C16.7133 60.5502 16.9948 60.3927 16.9948 60.3927C16.9948 60.3927 18.1393 59.754 19.8587 58.7924C20.7066 58.2938 21.6916 57.7138 22.7548 57.0918C23.8037 56.4587 24.9086 55.7609 26.0214 55.0748C28.2233 53.6673 30.4015 52.2243 31.9904 51.0931C32.7924 50.5362 33.465 50.0727 33.9153 49.727C34.3726 49.3869 34.6376 49.1995 34.6376 49.1995C34.6376 49.1995 34.9017 49.0057 35.3599 48.6719C35.8101 48.3263 36.4835 47.869 37.2468 47.2593C38.0179 46.6614 38.9104 45.9583 39.8748 45.2141C40.8098 44.4415 41.8087 43.6159 42.8069 42.784C44.7676 41.0926 46.7061 39.3784 48.1077 38.0336C48.8124 37.3671 49.4115 36.8295 49.8025 36.4208C50.2013 36.0239 50.4291 35.7963 50.4291 35.7963C50.4291 35.7963 50.6569 35.5686 51.0557 35.1717C51.4475 34.7694 52.0379 34.2136 52.6992 33.5077C53.3604 32.8018 54.1352 31.9789 54.9603 31.0983C55.7784 30.2122 56.6098 29.2282 57.4696 28.2663L58.1095 27.5438C58.3151 27.2933 58.5153 27.0499 58.7154 26.8065C59.1157 26.3196 59.5097 25.8336 59.8934 25.3681C60.2701 24.897 60.657 24.4568 60.9926 24.0166C61.3283 23.5764 61.6418 23.1647 61.9396 22.7806C62.5227 22.0141 63.0127 21.3747 63.3539 20.9275C63.695 20.4802 63.8722 20.2076 63.8722 20.2076C63.8722 20.2076 64.6182 19.1574 65.7344 17.5857C66.2961 16.8026 66.8867 15.8426 67.5563 14.847C67.8839 14.3437 68.236 13.8309 68.5723 13.2944C68.9014 12.7524 69.2298 12.2041 69.5645 11.655C70.938 9.47978 72.1313 7.19909 73.0808 5.52658C73.9537 3.80603 74.5401 2.66057 74.5401 2.66057C74.5401 2.66057 75.147 1.52534 75.9378 -0.236135C76.3335 -1.11372 76.8341 -2.12644 77.3093 -3.23858C77.7781 -4.34993 78.2752 -5.54183 78.7732 -6.72742C79.264 -7.91853 79.6932 -9.14033 80.128 -10.2666C80.3388 -10.8321 80.5582 -11.3795 80.7359 -11.9023C80.9127 -12.4315 81.0809 -12.9274 81.2341 -13.3895C81.855 -15.2257 82.2645 -16.4514 82.2645 -16.4514L81.2552 -16.7728L81.2576 -16.7538Z" fill="#A1604E"/>
<path d="M9.63944 63.0486C9.24741 63.2457 8.84275 63.4445 8.43257 63.6503C8.0208 63.8435 7.5972 64.0446 7.1728 64.2394C6.33111 64.6346 5.48312 65.0305 4.69666 65.4058C3.89517 65.7638 3.15443 66.0949 2.51072 66.3816C1.23672 66.9597 0.371309 67.3193 0.371309 67.3193C0.371309 67.3193 1.33035 68.3591 2.77799 69.9144C4.22403 71.4571 6.18312 73.5058 8.1785 75.5371C10.1747 77.5747 12.2032 79.5634 13.7446 81.0491C15.2979 82.5269 16.3271 83.5129 16.3271 83.5129C16.3271 83.5129 16.2177 82.0898 16.0512 79.9619C15.8712 77.8292 15.6002 74.9768 15.2882 72.1552C14.9762 69.3337 14.6216 66.5303 14.3288 64.4184C14.0249 62.3206 13.8216 60.9159 13.8216 60.9159C13.8216 60.9159 12.9973 61.3473 11.7637 61.9909C11.1421 62.3004 10.4117 62.6622 9.63313 63.0494L9.63944 63.0486Z" fill="url(#paint0_linear_34_14119)"/>
<path d="M31.5895 50.1046C31.5895 50.1046 30.8348 50.6298 29.7024 51.4145C28.5558 52.1882 27.0156 53.1978 25.4612 54.1962C23.8902 55.1647 22.3287 56.1577 21.1259 56.8423C19.9318 57.545 19.1313 58.0119 19.1313 58.0119C19.1313 58.0119 23.3646 61.7103 27.8188 65.278C32.2319 68.8253 36.8698 72.2223 36.8698 72.2223C36.8698 72.2223 36.6096 70.8247 36.17 68.7185C35.7367 66.6115 35.1208 63.8219 34.4639 61.0632C33.8142 58.31 33.0934 55.553 32.5394 53.5062C31.9672 51.468 31.5895 50.1046 31.5895 50.1046Z" fill="url(#paint1_linear_34_14119)"/>
<path d="M51.9914 47.5366C50.9597 44.9087 49.8444 42.2786 48.9962 40.3395C48.1471 38.3942 47.5563 37.1218 47.5563 37.1218C47.5563 37.1218 46.891 37.7448 45.893 38.6793C45.4012 39.1521 44.7862 39.6661 44.1461 40.2346C43.4988 40.7976 42.8264 41.415 42.1239 41.9979C40.7055 43.1587 39.3235 44.3535 38.2219 45.1793C37.1354 46.0223 36.4179 46.5878 36.4179 46.5878C36.4179 46.5878 41.0854 49.7116 45.9917 52.6448C50.8373 55.5537 55.9217 58.2719 55.9217 58.2719C55.9217 58.2719 55.4682 56.918 54.7429 54.8864C54.0184 52.8612 53.0254 50.1835 51.9859 47.5437L51.9914 47.5366Z" fill="url(#paint2_linear_34_14119)"/>
<path d="M67.2746 31.5356C65.8304 29.0945 64.3476 26.7033 63.1846 24.9132C62.0287 23.1285 61.2463 21.9637 61.2463 21.9637C61.2463 21.9637 60.6956 22.6813 59.8636 23.7616C59.4294 24.2848 58.9298 24.8997 58.3908 25.558C57.8519 26.2164 57.2877 26.9292 56.6793 27.5963C55.4791 28.9606 54.2931 30.3358 53.3386 31.3098C52.4062 32.3065 51.7844 32.9689 51.7844 32.9689C51.7844 32.9689 56.8533 35.362 62.1485 37.5147C64.7803 38.5931 67.4341 39.5917 69.452 40.3308C71.4692 41.0635 72.8308 41.5328 72.8308 41.5328C72.8308 41.5328 72.1824 40.2612 71.155 38.3769C70.126 36.48 68.7204 33.9892 67.2762 31.5482L67.2746 31.5356Z" fill="url(#paint3_linear_34_14119)"/>
<path d="M82.4497 16.504C81.6059 15.4624 80.6902 14.3594 79.7697 13.2699C77.9352 11.0899 76.0573 8.97322 74.6412 7.41391C73.9272 6.63821 73.3327 5.99495 72.916 5.54088C72.493 5.08761 72.2487 4.82984 72.2487 4.82984C72.2487 4.82984 72.2228 4.87803 72.1771 4.97362C72.1315 5.0692 72.059 5.20665 71.959 5.37968C71.7654 5.72492 71.4882 6.22185 71.1591 6.81515C70.8301 7.40846 70.4427 8.09895 70.0302 8.84394C69.6097 9.5771 69.123 10.3443 68.6568 11.1217C68.1764 11.8881 67.7379 12.6813 67.2622 13.383C66.7935 14.0902 66.3643 14.7539 65.987 15.3212C65.6097 15.8885 65.3105 16.3626 65.0828 16.6929C64.8544 17.0169 64.7236 17.2002 64.7236 17.2002C64.7236 17.2002 65.0632 17.2984 65.6618 17.4664C66.2604 17.6345 67.1117 17.8732 68.1272 18.1425C70.1654 18.6865 72.9016 19.3732 75.6812 19.9967C78.4623 20.6328 81.2733 21.2009 83.3681 21.5838C85.47 21.9723 86.8912 22.2031 86.8912 22.2031C86.8912 22.2031 86.033 21.0479 84.7162 19.3605C84.0574 18.5137 83.2864 17.54 82.456 16.5032L82.4497 16.504Z" fill="url(#paint4_linear_34_14119)"/>
<path d="M52.7612 -8.8486C52.7612 -8.8486 53.8123 -7.99367 55.3914 -6.71799C55.785 -6.39571 56.2133 -6.05217 56.6638 -5.68577C57.1198 -5.32649 57.6145 -4.96568 58.1179 -4.58673C59.1373 -3.83042 60.1986 -2.99603 61.3041 -2.21854C62.4151 -1.44816 63.5198 -0.676984 64.5605 0.0445567C65.6004 0.759783 66.614 1.36927 67.4603 1.92296C69.1535 3.03665 70.3212 3.69723 70.3212 3.69723C70.3212 3.69723 71.4794 4.38465 73.2192 5.40908C75.0006 6.35766 77.3383 7.69774 79.7682 8.85298C80.3701 9.1489 80.9729 9.45113 81.5677 9.74154C82.1617 10.0256 82.7652 10.2829 83.3371 10.5441C84.4919 11.0523 85.5512 11.5663 86.4903 11.9414C88.3576 12.7059 89.6016 13.2093 89.6016 13.2093C89.6016 13.2093 89.9073 13.3438 90.4593 13.5498C91.0106 13.7495 91.8044 14.0404 92.7529 14.3887C93.2244 14.5664 93.7418 14.7512 94.2804 14.9525C94.8254 15.153 95.4121 15.3289 96.0084 15.5293C96.6047 15.7298 97.227 15.9333 97.8557 16.136C98.17 16.2374 98.4914 16.3443 98.8066 16.452L99.7787 16.7331C101.076 17.1014 102.365 17.5029 103.587 17.8295C104.813 18.1427 105.96 18.4338 106.94 18.6818C107.922 18.9362 108.757 19.0936 109.331 19.2261C109.912 19.3516 110.242 19.4253 110.242 19.4253C110.242 19.4253 110.572 19.499 111.146 19.6253C111.722 19.7641 112.555 19.909 113.554 20.0969C115.542 20.4998 118.226 20.9237 120.912 21.3152C122.261 21.4845 123.61 21.6538 124.875 21.8146C126.148 21.9358 127.33 22.0557 128.35 22.1513C129.364 22.2603 130.221 22.293 130.811 22.3402C131.406 22.3804 131.749 22.4012 131.749 22.4012C131.749 22.4012 132.092 22.422 132.687 22.4622C133.284 22.515 134.134 22.5422 135.159 22.5857C137.206 22.6924 139.946 22.7436 142.686 22.7498C144.056 22.7304 145.428 22.7237 146.714 22.6958C148.003 22.6481 149.204 22.6053 150.233 22.5714C152.296 22.4515 153.672 22.3737 153.672 22.3737C153.672 22.3737 154.016 22.3558 154.614 22.3187C155.212 22.2815 156.074 22.1981 157.103 22.1192C158.133 22.0404 159.339 21.9391 160.629 21.7951C161.92 21.6575 163.29 21.5291 164.664 21.3424C167.413 21.0139 170.157 20.5963 172.208 20.2728C174.262 19.9295 175.631 19.6986 175.631 19.6986C175.631 19.6986 176.997 19.4424 179.046 19.055C181.092 18.6486 183.819 18.092 186.536 17.4597C191.973 16.2266 197.361 14.6983 197.361 14.6983C197.361 14.6983 198.707 14.3356 200.722 13.7279C201.731 13.4399 202.905 13.0861 204.157 12.6904C205.417 12.3065 206.748 11.8751 208.078 11.4374C210.746 10.5675 213.394 9.64242 215.376 8.92986C217.35 8.20546 218.667 7.71806 218.667 7.71806C218.667 7.71806 223.937 5.76212 229.11 3.55531C231.706 2.47004 234.267 1.31852 236.191 0.452898C238.106 -0.430866 239.379 -1.02162 239.379 -1.02162C239.379 -1.02162 244.472 -3.40435 249.409 -6.01103C251.881 -7.31161 254.31 -8.6516 256.086 -9.67172C257.712 -10.6087 258.771 -11.2623 258.855 -11.3114L259.449 -10.3666C259.55 -10.4307 258.433 -9.73122 256.645 -8.70319C254.857 -7.67516 252.416 -6.32726 249.932 -5.02507C244.971 -2.40257 239.852 -0.0166415 239.852 -0.0166415C239.852 -0.0166415 238.573 0.574902 236.653 1.46578C234.723 2.33851 232.149 3.49163 229.548 4.58401C224.356 6.79322 219.062 8.75867 219.062 8.75867C219.062 8.75867 217.738 9.24687 215.752 9.97918C213.764 10.6925 211.104 11.6255 208.424 12.497C207.088 12.9355 205.75 13.3677 204.484 13.7524C203.225 14.1489 202.045 14.5035 201.037 14.7979C199.015 15.4 197.657 15.7706 197.657 15.7706C197.657 15.7706 192.245 17.3084 186.783 18.551C184.053 19.185 181.315 19.7494 179.256 20.1574C177.195 20.5465 175.822 20.8034 175.822 20.8034C175.822 20.8034 174.447 21.0352 172.38 21.38C170.311 21.7059 167.554 22.1252 164.792 22.4553C163.411 22.6428 162.029 22.7727 160.732 22.9112C159.435 23.056 158.229 23.1572 157.187 23.2377C156.152 23.3236 155.283 23.4015 154.679 23.4395C154.074 23.4775 153.73 23.4953 153.73 23.4953C153.73 23.4953 152.348 23.5739 150.272 23.6954C149.237 23.7301 148.024 23.7745 146.728 23.823C145.429 23.8525 144.05 23.8537 142.674 23.8739C139.915 23.8701 137.156 23.8149 135.096 23.7098C134.064 23.6671 133.208 23.6408 132.605 23.5888C132.003 23.5494 131.66 23.5223 131.66 23.5223C131.66 23.5223 131.317 23.5015 130.715 23.4558C130.118 23.403 129.255 23.3774 128.234 23.2629C127.207 23.1618 126.019 23.049 124.734 22.9294C123.456 22.7702 122.101 22.6017 120.744 22.4269C118.038 22.0314 115.335 21.6036 113.333 21.1961C112.327 21.0026 111.488 20.8586 110.906 20.7205C110.325 20.5887 109.989 20.5158 109.989 20.5158C109.989 20.5158 109.658 20.4421 109.071 20.3111C108.489 20.1731 107.654 20.0156 106.667 19.7621C105.679 19.5086 104.525 19.2119 103.286 18.9003C102.052 18.5754 100.756 18.1684 99.4448 17.7953L98.4655 17.5087C98.1441 17.4018 97.8226 17.2949 97.5083 17.1935C96.8726 16.9853 96.2502 16.7817 95.6413 16.5829C95.0379 16.377 94.4449 16.2018 93.8999 16.0013C93.3549 15.8008 92.8368 15.6098 92.359 15.4329C91.4033 15.0791 90.6096 14.7882 90.0512 14.583C89.4991 14.3769 89.1863 14.2369 89.1863 14.2369C89.1863 14.2369 87.928 13.7225 86.0411 12.954C85.0948 12.5734 84.0292 12.0603 82.8602 11.541C82.2812 11.2743 81.6777 11.017 81.0774 10.7337C80.4817 10.437 79.8727 10.1356 79.2636 9.83413C76.8141 8.67497 74.455 7.31834 72.6601 6.36504C70.9062 5.32959 69.7345 4.63745 69.7345 4.63745C69.7345 4.63745 68.5526 3.96585 66.8459 2.84744C65.9926 2.28823 64.9718 1.67323 63.9248 0.952488C62.877 0.225432 61.7589 -0.550462 60.6408 -1.32636C59.5274 -2.11568 58.4589 -2.95558 57.4261 -3.7166C56.9156 -4.10107 56.4146 -4.46108 55.9578 -4.82668C55.5002 -5.19859 55.0718 -5.54213 54.6711 -5.86993C53.0778 -7.15664 52.0196 -8.01708 52.0196 -8.01708L52.7391 -8.87146L52.7612 -8.8486Z" fill="#A1604E"/>
<path d="M229.118 3.56716C232.804 2.02324 236.436 0.357838 236.436 0.357838C236.436 0.357838 236.56 1.84958 236.746 4.07772C236.926 6.31298 237.144 9.30678 237.318 12.2998C237.691 18.2954 237.882 24.3205 237.882 24.3205C237.882 24.3205 236.839 23.2271 235.286 21.5954C233.731 19.951 231.682 17.7533 229.664 15.5389C227.638 13.319 225.648 11.0753 224.172 9.39531C222.7 7.70189 221.717 6.57532 221.717 6.57532C221.717 6.57532 222.647 6.22031 224.039 5.65938C225.432 5.11108 227.28 4.35135 229.119 3.57348L229.118 3.56716Z" fill="url(#paint5_linear_34_14119)"/>
<path d="M215.623 8.85371C215.623 8.85371 215.626 10.348 215.627 12.5867C215.621 14.8262 215.598 17.8377 215.527 20.8295C215.464 23.8269 215.364 26.8417 215.271 29.0986C215.166 31.3572 215.099 32.8603 215.099 32.8603C215.099 32.8603 214.156 31.6902 212.733 29.9265C211.325 28.1738 209.46 25.8052 207.631 23.4192C203.965 18.6742 200.476 13.8167 200.476 13.8167C200.476 13.8167 204.301 12.7107 208.08 11.45C211.869 10.2138 215.623 8.85371 215.623 8.85371Z" fill="url(#paint6_linear_34_14119)"/>
<path d="M181.218 18.6263C181.943 18.4768 182.793 18.2987 183.699 18.1072C184.603 17.903 185.57 17.6845 186.536 17.466C188.469 17.0227 190.397 16.5478 191.839 16.1794C193.28 15.8047 194.243 15.5546 194.243 15.5546C194.243 15.5546 194.116 17.0396 193.931 19.2762C193.732 21.5081 193.444 24.5081 193.114 27.4751C192.785 30.4547 192.412 33.4399 192.113 35.6845C191.799 37.9245 191.596 39.4127 191.596 39.4127C191.596 39.4127 190.758 38.1588 189.5 36.278C188.247 34.3901 186.616 31.8894 185.01 29.3342C183.405 26.7916 181.844 24.2371 180.697 22.3166C179.555 20.389 178.795 19.0995 178.795 19.0995C178.795 19.0995 179.04 19.0558 179.466 18.9762C179.891 18.8903 180.497 18.7623 181.222 18.6129L181.218 18.6263Z" fill="url(#paint7_linear_34_14119)"/>
<path d="M161.796 21.6861C162.252 21.6413 162.726 21.5877 163.208 21.5396C163.688 21.4789 164.174 21.4174 164.666 21.3551C165.645 21.2313 166.617 21.1083 167.533 20.9925C168.446 20.8578 169.302 20.7302 170.027 20.6257C171.489 20.4215 172.461 20.2472 172.461 20.2472C172.461 20.2472 172.192 21.7182 171.791 23.9243C171.376 26.1194 170.791 29.0544 170.162 31.9886C169.534 34.9355 168.858 37.8564 168.321 40.0541C167.778 42.2525 167.418 43.7157 167.418 43.7157C167.418 43.7157 166.711 42.3875 165.65 40.3919C164.601 38.3884 163.228 35.6947 161.906 33.0072C160.584 30.3135 159.313 27.6196 158.38 25.5694C157.461 23.5239 156.846 22.1647 156.846 22.1647C156.846 22.1647 157.824 22.0859 159.29 21.9582C160.025 21.8845 160.879 21.7893 161.79 21.6932L161.796 21.6861Z" fill="url(#paint8_linear_34_14119)"/>
<path d="M134.904 22.5923C134.904 22.5923 135.871 22.6303 137.328 22.6898C138.783 22.7303 140.73 22.7598 142.681 22.7632C144.627 22.7351 146.577 22.7322 148.044 22.6622C149.506 22.6119 150.484 22.5781 150.484 22.5781C150.484 22.5781 148.811 28.2743 146.858 33.9804C144.932 39.6447 142.721 45.2936 142.727 45.2928C142.727 45.2928 142.166 43.9011 141.364 41.7702C140.563 39.6456 139.525 36.8133 138.545 33.9864C137.566 31.1658 136.645 28.2993 135.983 26.1571C135.334 24.0196 134.904 22.5923 134.904 22.5923Z" fill="url(#paint9_linear_34_14119)"/>
<path d="M115.273 31.8624C114.697 28.9331 114.206 25.961 113.861 23.7465C113.517 21.532 113.318 20.0625 113.318 20.0625C113.318 20.0625 114.264 20.2379 115.684 20.5074C116.395 20.6484 117.229 20.7546 118.121 20.9048C119.016 21.0353 119.962 21.2108 120.92 21.327C122.841 21.5586 124.75 21.8368 126.194 21.9491C127.642 22.0867 128.604 22.1832 128.604 22.1832C128.604 22.1832 126.211 27.6113 123.506 33.002C120.833 38.3437 117.841 43.6425 117.841 43.6425C117.841 43.6425 117.476 42.1811 116.971 39.9613C116.466 37.7478 115.836 34.7933 115.266 31.8569L115.273 31.8624Z" fill="url(#paint10_linear_34_14119)"/>
<path d="M92.5801 26.2589C92.4833 23.2626 92.4474 20.2906 92.4701 18.0361C92.4882 15.795 92.531 14.3078 92.531 14.3078C92.531 14.3078 93.4258 14.6372 94.7772 15.127C95.4595 15.3486 96.2564 15.6135 97.1062 15.8909C97.9623 16.1675 98.8618 16.4835 99.7921 16.7379C101.631 17.2751 103.471 17.825 104.872 18.1544C106.264 18.5108 107.192 18.7462 107.192 18.7462C107.192 18.7462 104.034 23.7516 100.532 28.6722C98.7957 31.1242 97.0003 33.5131 95.6183 35.3173C94.2356 37.1152 93.2893 38.3062 93.2893 38.3062C93.2893 38.3062 93.1514 36.8097 92.9933 34.546C92.8408 32.2752 92.6769 29.2552 92.5801 26.2589Z" fill="url(#paint11_linear_34_14119)"/>
<path d="M70.5415 21.4643C70.7036 20.0582 70.8925 18.5588 71.0947 17.0643C71.5 14.0814 71.9669 11.1292 72.3442 8.93892C72.5391 7.84298 72.7059 6.93021 72.8179 6.2938C72.9417 5.64949 73.0106 5.28154 73.0106 5.28154C73.0106 5.28154 73.0596 5.31383 73.1568 5.3721C73.2539 5.43037 73.3985 5.50831 73.5779 5.6075C73.9491 5.8043 74.4729 6.09087 75.1057 6.42779C75.7393 6.77103 76.4693 7.16622 77.2617 7.59843C78.0524 8.018 78.9182 8.42168 79.7745 8.85221C80.6355 9.26932 81.4753 9.72119 82.3031 10.0783C83.1191 10.4434 83.8813 10.7896 84.5346 11.0855C85.1878 11.3813 85.7329 11.6331 86.1191 11.796C86.5046 11.9525 86.7273 12.0398 86.7273 12.0398C86.7273 12.0398 86.4806 12.3211 86.048 12.8057C85.6153 13.2902 84.9856 13.9921 84.2354 14.8055C82.7293 16.4393 80.6745 18.6045 78.5582 20.7389C76.4426 22.8796 74.2576 24.9779 72.61 26.5077C70.9569 28.0447 69.8281 29.0599 69.8281 29.0599C69.8281 29.0599 69.9442 27.5442 70.1541 25.2981C70.2621 24.1746 70.3912 22.8625 70.5486 21.4698L70.5415 21.4643Z" fill="url(#paint12_linear_34_14119)"/>
</g>
<defs>
<linearGradient id="paint0_linear_34_14119" x1="17.0769" y1="81.5858" x2="6.45433" y2="62.9417" gradientUnits="userSpaceOnUse">
<stop stop-color="#FFC000"/>
<stop offset="1" stop-color="#FC880B"/>
</linearGradient>
<linearGradient id="paint1_linear_34_14119" x1="35.4754" y1="72.6641" x2="25.7504" y2="54.754" gradientUnits="userSpaceOnUse">
<stop stop-color="#2EAFFF"/>
<stop offset="1" stop-color="#0969E6"/>
</linearGradient>
<linearGradient id="paint2_linear_34_14119" x1="56.0099" y1="58.0949" x2="35.4768" y2="34.2577" gradientUnits="userSpaceOnUse">
<stop stop-color="#83C556"/>
<stop offset="1" stop-color="#346D4D"/>
</linearGradient>
<linearGradient id="paint3_linear_34_14119" x1="72.4074" y1="43.585" x2="53.5089" y2="24.3646" gradientUnits="userSpaceOnUse">
<stop stop-color="#FF7A45"/>
<stop offset="1" stop-color="#D43939"/>
</linearGradient>
<linearGradient id="paint4_linear_34_14119" x1="87.4971" y1="20.3172" x2="61.3283" y2="7.4582" gradientUnits="userSpaceOnUse">
<stop stop-color="#FFC000"/>
<stop offset="1" stop-color="#FC880B"/>
</linearGradient>
<linearGradient id="paint5_linear_34_14119" x1="237.321" y1="22.3667" x2="228.167" y2="1.53046" gradientUnits="userSpaceOnUse">
<stop stop-color="#2EAFFF"/>
<stop offset="1" stop-color="#0969E6"/>
</linearGradient>
<linearGradient id="paint6_linear_34_14119" x1="214.794" y1="31.7223" x2="206.834" y2="7.89072" gradientUnits="userSpaceOnUse">
<stop stop-color="#83C556"/>
<stop offset="1" stop-color="#346D4D"/>
</linearGradient>
<linearGradient id="paint7_linear_34_14119" x1="191.067" y1="37.3857" x2="185.896" y2="14.9511" gradientUnits="userSpaceOnUse">
<stop stop-color="#FF7A45"/>
<stop offset="1" stop-color="#D43939"/>
</linearGradient>
<linearGradient id="paint8_linear_34_14119" x1="165.606" y1="42.3941" x2="164.506" y2="19.7538" gradientUnits="userSpaceOnUse">
<stop stop-color="#FFC000"/>
<stop offset="1" stop-color="#FC880B"/>
</linearGradient>
<linearGradient id="paint9_linear_34_14119" x1="144.156" y1="44.8681" x2="142.674" y2="23.3954" gradientUnits="userSpaceOnUse">
<stop stop-color="#2EAFFF"/>
<stop offset="1" stop-color="#0969E6"/>
</linearGradient>
<linearGradient id="paint10_linear_34_14119" x1="117.604" y1="43.5175" x2="122.392" y2="10.6441" gradientUnits="userSpaceOnUse">
<stop stop-color="#83C556"/>
<stop offset="1" stop-color="#346D4D"/>
</linearGradient>
<linearGradient id="paint11_linear_34_14119" x1="94.7695" y1="39.8786" x2="100.724" y2="12.0438" gradientUnits="userSpaceOnUse">
<stop stop-color="#FF7A45"/>
<stop offset="1" stop-color="#D43939"/>
</linearGradient>
<linearGradient id="paint12_linear_34_14119" x1="68.1425" y1="27.6966" x2="84.1747" y2="1.40742" gradientUnits="userSpaceOnUse">
<stop stop-color="#FFC000"/>
<stop offset="1" stop-color="#FC880B"/>
</linearGradient>
<clipPath id="clip0_34_14119">
<rect width="354.93" height="103.163" fill="white" transform="translate(-95 5.5415) rotate(-7.20927)"/>
</clipPath>
</defs>
</svg>
