<svg width="148" height="145" viewBox="0 0 148 145" fill="none" xmlns="http://www.w3.org/2000/svg">
<g clip-path="url(#clip0_34_14077)">
<path d="M75.6723 85.6324C65.3597 100.761 60.3817 115.29 64.5524 118.087C68.7233 120.878 80.4705 110.879 90.7832 95.7508C101.096 80.6222 106.074 66.0932 101.903 63.2963C97.7321 60.5052 85.9849 70.5037 75.6723 85.6324Z" fill="url(#paint0_linear_34_14077)"/>
<path d="M85.4044 84.9109C86.3217 85.4306 112.475 100.942 112.475 100.942L108.206 107.261L103.936 113.58C103.936 113.58 79.7869 95.1049 78.9626 94.4455C78.1382 93.7862 77.8765 92.3403 80.4613 88.5164C83.0461 84.6925 84.4813 84.3967 85.3987 84.9108L85.4044 84.9109Z" fill="url(#paint1_linear_34_14077)"/>
<path d="M147.648 119.551C150.02 121.493 146.264 128.472 143.679 132.296C141.094 136.119 136.027 142.209 133.341 140.73L117.692 132.08L134.45 107.278L147.648 119.551Z" fill="url(#paint2_linear_34_14077)"/>
<path d="M117.603 132.016C120.551 134.009 126.601 126.744 129.714 122.133C132.827 117.528 137.309 109.201 134.361 107.214C131.414 105.222 125.364 112.486 122.25 117.091C119.137 121.697 114.656 130.024 117.603 132.016Z" fill="url(#paint3_linear_34_14077)"/>
<path d="M117.603 132.016C120.551 134.009 126.601 126.744 129.714 122.133C132.827 117.528 137.309 109.201 134.361 107.214C131.414 105.222 125.364 112.486 122.25 117.091C119.137 121.697 114.656 130.024 117.603 132.016Z" fill="url(#paint4_linear_34_14077)"/>
<path d="M116.243 127.001C116.243 127.001 106.047 136.58 99.9353 143.538C98.8213 144.812 97.9408 145.367 96.4319 144.752C95.6914 144.45 94.777 145.625 93.5944 145.09C92.3838 143.92 90.8712 142.265 90.7178 142.002C90.4218 141.499 91.9931 139.019 93.0941 137.835C94.1951 136.657 96.3179 136.77 98.1871 134.995C100.062 133.221 109.173 122.967 109.173 122.967L116.243 127.001Z" fill="#AF9587"/>
<path d="M118.997 129.956C118.997 129.956 108.802 139.536 102.69 146.494C101.57 147.767 100.695 148.322 99.1864 147.707C97.6774 147.091 93.7738 145.466 93.4722 144.963C93.1762 144.46 94.7476 141.974 95.8485 140.796C96.9495 139.618 99.0723 139.731 100.941 137.956C102.816 136.182 111.927 125.928 111.927 125.928L118.997 129.962L118.997 129.956Z" fill="#D1BFA9"/>
<path d="M93.5571 97.7077C108.752 75.222 105.339 64.7102 105.339 64.7102C111.348 73.2915 133.798 108.046 133.798 108.046C135.4 109.126 133.198 115.184 128.882 121.57C124.567 127.956 119.769 132.259 118.172 131.179C118.172 131.179 77.5472 123.321 67.3446 120.953C67.3446 120.953 78.3674 120.194 93.5627 97.7078L93.5571 97.7077Z" fill="url(#paint5_linear_34_14077)"/>
<path d="M106.244 66.8234C106.244 66.8234 110.752 86.6969 78.5875 122.978C74.7043 122.398 70.9797 121.799 67.3388 120.952C67.3388 120.952 78.3615 120.193 93.5569 97.7077C105.325 80.2907 105.931 70.0559 105.603 66.3313L106.244 66.8234Z" fill="url(#paint6_linear_34_14077)"/>
<path d="M76.0283 85.8696C85.4267 71.9583 96.4218 62.5182 102.316 62.8352C103.054 62.9391 103.376 62.9846 104.345 63.4657C103.172 62.6757 101.241 61.3688 100.951 61.1713C95.9376 57.7848 83.2534 67.81 72.612 83.5578C61.9705 99.3056 57.4086 114.82 62.4217 118.201C62.7119 118.398 64.649 119.705 65.8157 120.495C65.0037 119.78 64.8506 119.5 64.4726 118.849C61.9764 113.502 66.6356 99.7753 76.034 85.864L76.0283 85.8696Z" fill="url(#paint7_linear_34_14077)"/>
<path d="M76.0283 85.8696C85.4267 71.9583 96.4218 62.5182 102.316 62.8352C103.054 62.9391 103.376 62.9846 104.345 63.4657C103.172 62.6757 101.241 61.3688 100.951 61.1713C95.9376 57.7848 83.2534 67.81 72.612 83.5578C61.9705 99.3056 57.4086 114.82 62.4217 118.201C62.7119 118.398 64.649 119.705 65.8157 120.495C65.0037 119.78 64.8506 119.5 64.4726 118.849C61.9764 113.502 66.6356 99.7753 76.034 85.864L76.0283 85.8696Z" fill="url(#paint8_linear_34_14077)"/>
<path d="M90.7544 95.8198C100.153 81.9085 104.806 68.1874 102.316 62.8352C101.943 62.1841 101.785 61.9043 100.973 61.1886C102.145 61.9787 104.077 63.2856 104.367 63.483C109.38 66.8695 104.812 82.378 94.1765 98.126C83.5351 113.874 70.8508 123.899 65.8379 120.512C65.5476 120.315 63.6161 119.008 62.4438 118.218C63.407 118.699 63.7283 118.745 64.4724 118.849C70.3666 119.166 81.3561 109.725 90.7545 95.8141L90.7544 95.8198Z" fill="url(#paint9_linear_34_14077)"/>
<path d="M90.7544 95.8198C100.153 81.9085 104.806 68.1874 102.316 62.8352C101.943 62.1841 101.785 61.9043 100.973 61.1886C102.145 61.9787 104.077 63.2856 104.367 63.483C109.38 66.8695 104.812 82.378 94.1765 98.126C83.5351 113.874 70.8508 123.899 65.8379 120.512C65.5476 120.315 63.6161 119.008 62.4438 118.218C63.407 118.699 63.7283 118.745 64.4724 118.849C70.3666 119.166 81.3561 109.725 90.7545 95.8141L90.7544 95.8198Z" fill="url(#paint10_linear_34_14077)"/>
<path d="M100.945 61.1713C105.958 64.5578 101.39 80.0663 90.7546 95.8142C80.1132 111.562 67.429 121.587 62.416 118.201C57.403 114.814 61.9705 99.3057 72.6063 83.5578C83.2477 67.81 95.9319 57.7848 100.945 61.1713ZM62.7131 116.172C66.978 119.053 78.5947 109.308 88.6669 94.4027C98.7334 79.4978 103.439 65.0825 99.1798 62.2015C94.9149 59.3204 83.2982 69.0655 73.226 83.9704C63.1595 98.8754 58.4538 113.291 62.7131 116.172Z" fill="#F58A4D"/>
<path d="M146.761 122.92L148.023 123.774C147.842 124.386 147.61 125.026 147.338 125.677L145.664 124.544C145.217 124.242 145.098 123.635 145.4 123.183C145.702 122.737 146.315 122.618 146.761 122.92Z" fill="url(#paint11_linear_34_14077)"/>
<path d="M145.171 127.073L146.32 127.851C146.016 128.439 145.7 129.02 145.379 129.58L144.073 128.697C143.626 128.395 143.508 127.788 143.81 127.336C144.112 126.889 144.718 126.771 145.171 127.073Z" fill="url(#paint12_linear_34_14077)"/>
<path d="M141.594 131.065C141.896 130.618 142.503 130.5 142.955 130.802L144.138 131.603C143.981 131.843 143.83 132.072 143.679 132.295C143.476 132.591 143.261 132.904 143.035 133.227L141.857 132.432C141.411 132.13 141.292 131.517 141.594 131.071L141.594 131.065Z" fill="url(#paint13_linear_34_14077)"/>
<path d="M138.959 134.515C139.261 134.068 139.874 133.95 140.32 134.252L141.604 135.123C141.199 135.63 140.777 136.142 140.339 136.631L139.223 135.876C138.776 135.574 138.657 134.967 138.959 134.515Z" fill="url(#paint14_linear_34_14077)"/>
<path d="M135.7 137.541C136.002 137.094 136.609 136.975 137.061 137.278L138.685 138.375C138.168 138.869 137.651 139.317 137.141 139.698L135.963 138.902C135.517 138.6 135.398 137.987 135.7 137.541Z" fill="url(#paint15_linear_34_14077)"/>
<path d="M85.4046 84.9108C86.2289 85.5701 86.4907 87.016 83.9059 90.8399C81.3211 94.6638 79.8802 94.9596 78.9684 94.4456C78.1441 93.7862 77.8823 92.3403 80.4672 88.5165C83.052 84.6926 84.4872 84.3967 85.4046 84.9108Z" fill="#F58A4D"/>
<path d="M58.0985 83.7132L55.7221 85.0349L52.652 84.4524C52.4493 84.4146 52.2278 84.4782 52.0724 84.6358L52.0129 84.6936L49.9878 86.7645L47.0979 86.5554L47.0162 86.5485C46.7953 86.5318 46.59 86.6348 46.4621 86.7959L44.5502 89.2665L41.8956 89.8514C41.8168 89.8704 41.7651 89.9463 41.7841 90.0251C41.7993 90.0882 41.854 90.135 41.9154 90.1402L44.9386 90.3904C45.0817 90.4026 45.2111 90.3446 45.3 90.243L45.3596 90.1719L47.2306 87.9881L50.099 88.7295L50.2128 88.7587C50.391 88.8057 50.5706 88.7757 50.7215 88.6958C50.8854 88.6562 51.0387 88.5591 51.1453 88.4065L51.2122 88.3103L52.8675 85.855L55.715 86.2478L55.8085 86.2619C55.9397 86.2802 56.0793 86.2365 56.1776 86.1326L58.2745 83.9443C58.3173 83.9005 58.3304 83.8306 58.2963 83.7722C58.2559 83.7018 58.1665 83.6768 58.0962 83.7171L58.0985 83.7132Z" fill="url(#paint16_linear_34_14077)"/>
<path d="M56.1184 78.9301L53.4129 78.6832L51.2034 76.4713C51.0551 76.327 50.837 76.2529 50.6204 76.2953L50.5416 76.3143L47.6999 76.8843L45.4298 75.0842L45.3641 75.0333C45.1905 74.8951 44.9627 74.8634 44.7647 74.9279L41.7949 75.8926L39.2716 74.8809C39.1979 74.852 39.1095 74.8867 39.0814 74.9636C39.0565 75.0263 39.0764 75.0949 39.1225 75.1338L41.4784 77.0401C41.5901 77.1299 41.73 77.1561 41.8584 77.1217L41.9499 77.0996L44.7277 76.3482L46.6806 78.5754L46.7586 78.6633C46.8786 78.8011 47.044 78.8779 47.2153 78.8966C47.3737 78.9584 47.5554 78.9645 47.729 78.8959L47.8386 78.8527L50.5893 77.7541L52.7239 79.6838L52.7926 79.7473C52.891 79.837 53.0307 79.8766 53.1709 79.8494L56.135 79.2197C56.1949 79.2053 56.2464 79.1561 56.2501 79.0885C56.257 79.0067 56.197 78.9378 56.1152 78.9309L56.1184 78.9301Z" fill="url(#paint17_linear_34_14077)"/>
<path d="M45.9246 82.1979L43.2929 82.8773L40.4701 81.5377C40.2828 81.4528 40.0531 81.455 39.8634 81.5675L39.7931 81.6079L37.3115 83.1018L34.5674 82.1703L34.4873 82.1429C34.2763 82.0704 34.051 82.1182 33.888 82.2444L31.4165 84.1529L28.7004 84.0553C28.6202 84.0547 28.5513 84.1147 28.5475 84.1957C28.5438 84.2633 28.5874 84.3195 28.6455 84.3389L31.5063 85.339C31.6412 85.3865 31.7822 85.3624 31.8945 85.2886L31.972 85.2365L34.3344 83.5945L36.9243 85.0338L37.0285 85.092C37.1898 85.1798 37.3714 85.1993 37.5353 85.1597C37.7067 85.165 37.8795 85.1066 38.0173 84.9865L38.1052 84.9085L40.3277 82.9501L42.9856 84.0493L43.0711 84.0854C43.1934 84.1359 43.3382 84.1276 43.4607 84.0546L46.0429 82.4663C46.095 82.4336 46.1231 82.3701 46.1071 82.304C46.088 82.2251 46.0066 82.1781 45.9285 82.2003L45.9246 82.1979Z" fill="url(#paint18_linear_34_14077)"/>
<path d="M68.6244 70.0142L67.3769 67.5998L68.0545 64.55C68.0962 64.3498 68.0421 64.126 67.8899 63.9659L67.8322 63.9064L65.8231 61.8196L66.121 58.9383L66.1311 58.8558C66.1541 58.6334 66.0573 58.4266 65.8987 58.2948L63.49 56.3078L62.9879 53.6366C62.9688 53.5578 62.8961 53.5053 62.8165 53.5212C62.7527 53.5333 62.7059 53.588 62.6975 53.6501L62.3577 56.6616C62.3417 56.8023 62.3973 56.9356 62.4933 57.0292L62.562 57.0927L64.6855 59.0317L63.8578 61.8742L63.8254 61.9888C63.7745 62.1646 63.7982 62.3457 63.8749 62.4973C63.9082 62.6628 64.003 62.8201 64.1524 62.9274L64.2494 62.9974L66.653 64.7286L66.1737 67.5636L66.1565 67.6579C66.135 67.7899 66.1748 67.9271 66.2731 68.0301L68.3973 70.1925C68.441 70.2353 68.5116 70.2516 68.5709 70.2206C68.642 70.1834 68.671 70.0963 68.633 70.0221L68.6244 70.0142Z" fill="url(#paint19_linear_34_14077)"/>
<path d="M73.4668 68.1832L73.7955 65.4846L76.0745 63.3457C76.2235 63.2029 76.3047 62.9865 76.2655 62.769L76.2527 62.6887L75.7693 59.8328L77.6399 57.619L77.6946 57.5558C77.8368 57.3846 77.8755 57.1584 77.8212 56.9613L76.9464 53.9631L78.0357 51.4711C78.0678 51.3966 78.0338 51.3114 77.9593 51.2793C77.8998 51.2537 77.8304 51.2705 77.7891 51.3205L75.8117 53.6167C75.7181 53.7261 75.6886 53.8667 75.7199 53.9959L75.742 54.0874L76.4052 56.8865L74.118 58.7705L74.0261 58.8461C73.8844 58.9638 73.8037 59.1268 73.778 59.2965C73.7122 59.4525 73.6998 59.6356 73.7645 59.8068L73.8046 59.9173L74.8179 62.7019L72.8234 64.7754L72.7568 64.8449C72.6663 64.9401 72.6196 65.0782 72.6437 65.2192L73.1812 68.2022C73.1925 68.2629 73.2416 68.3144 73.3069 68.322C73.3894 68.332 73.459 68.2752 73.4691 68.1927L73.4668 68.1832Z" fill="url(#paint20_linear_34_14077)"/>
<path d="M70.5119 57.8904L69.9145 55.2389L71.3411 52.4585C71.433 52.2728 71.4379 52.0447 71.3278 51.8511L71.2867 51.7777L69.8686 49.251L70.8841 46.5366L70.9122 46.4598C70.9886 46.2511 70.951 46.0267 70.8296 45.8558L68.9971 43.326L69.1859 40.6145C69.1896 40.5335 69.1296 40.4646 69.0479 40.4577C68.9802 40.454 68.9233 40.4945 68.9 40.5501L67.8121 43.3788C67.7607 43.5114 67.7784 43.6539 67.8523 43.7661L67.9012 43.8444L69.4681 46.255L67.9505 48.7971L67.8884 48.8989C67.7935 49.0586 67.7732 49.237 67.8073 49.4056C67.7981 49.5746 67.8502 49.7489 67.9647 49.8914L68.0403 49.9832L69.9291 52.2626L68.7515 54.886L68.7123 54.9722C68.6586 55.0953 68.663 55.2377 68.7329 55.361L70.2422 57.989C70.2716 58.0419 70.3359 58.0731 70.4029 58.0602C70.4817 58.0412 70.5295 57.9629 70.5104 57.8841L70.5119 57.8904Z" fill="url(#paint21_linear_34_14077)"/>
</g>
<defs>
<linearGradient id="paint0_linear_34_14077" x1="76.5" y1="82.9499" x2="92.6201" y2="101.843" gradientUnits="userSpaceOnUse">
<stop stop-color="#DAD3BA"/>
<stop offset="1" stop-color="#9E7D74"/>
</linearGradient>
<linearGradient id="paint1_linear_34_14077" x1="95.6802" y1="95.9321" x2="90.0364" y2="104.284" gradientUnits="userSpaceOnUse">
<stop stop-color="#F0EBD6"/>
<stop offset="1" stop-color="#BA9F88"/>
</linearGradient>
<linearGradient id="paint2_linear_34_14077" x1="144.062" y1="131.762" x2="126.117" y2="119.636" gradientUnits="userSpaceOnUse">
<stop stop-color="#FFCF87"/>
<stop offset="1" stop-color="#FF8D24"/>
</linearGradient>
<linearGradient id="paint3_linear_34_14077" x1="129.76" y1="122.097" x2="122.297" y2="117.055" gradientUnits="userSpaceOnUse">
<stop stop-color="#094DA3"/>
<stop offset="1" stop-color="#0969E6"/>
</linearGradient>
<linearGradient id="paint4_linear_34_14077" x1="132.54" y1="125.442" x2="120.358" y2="118.947" gradientUnits="userSpaceOnUse">
<stop stop-color="#FFCF87"/>
<stop offset="1" stop-color="#FF8D24"/>
</linearGradient>
<linearGradient id="paint5_linear_34_14077" x1="118.464" y1="91.1691" x2="95.5911" y2="125.018" gradientUnits="userSpaceOnUse">
<stop stop-color="#F0EBD6"/>
<stop offset="1" stop-color="#BA9F88"/>
</linearGradient>
<linearGradient id="paint6_linear_34_14077" x1="101.656" y1="80.9432" x2="79.1876" y2="114.193" gradientUnits="userSpaceOnUse">
<stop stop-color="#DAD3BA"/>
<stop offset="1" stop-color="#9E7D74"/>
</linearGradient>
<linearGradient id="paint7_linear_34_14077" x1="63.1114" y1="117.235" x2="89.9737" y2="70.6899" gradientUnits="userSpaceOnUse">
<stop stop-color="#094DA3"/>
<stop offset="1" stop-color="#0969E6"/>
</linearGradient>
<linearGradient id="paint8_linear_34_14077" x1="97.7403" y1="104.218" x2="69.0859" y2="88.9534" gradientUnits="userSpaceOnUse">
<stop stop-color="#FFCF87"/>
<stop offset="1" stop-color="#FF8D24"/>
</linearGradient>
<linearGradient id="paint9_linear_34_14077" x1="101.991" y1="73.1502" x2="63.1956" y2="130.563" gradientUnits="userSpaceOnUse">
<stop stop-color="#2EAFFF"/>
<stop offset="1" stop-color="#0969E6"/>
</linearGradient>
<linearGradient id="paint10_linear_34_14077" x1="99.8854" y1="104.89" x2="71.2315" y2="89.6258" gradientUnits="userSpaceOnUse">
<stop stop-color="#FFCF87"/>
<stop offset="1" stop-color="#FF8D24"/>
</linearGradient>
<linearGradient id="paint11_linear_34_14077" x1="147.564" y1="125.039" x2="145.129" y2="123.743" gradientUnits="userSpaceOnUse">
<stop stop-color="#A36509"/>
<stop offset="1" stop-color="#E68E09"/>
</linearGradient>
<linearGradient id="paint12_linear_34_14077" x1="145.882" y1="129.001" x2="143.592" y2="127.726" gradientUnits="userSpaceOnUse">
<stop stop-color="#A36509"/>
<stop offset="1" stop-color="#E68E09"/>
</linearGradient>
<linearGradient id="paint13_linear_34_14077" x1="143.696" y1="132.669" x2="141.423" y2="131.349" gradientUnits="userSpaceOnUse">
<stop stop-color="#A36509"/>
<stop offset="1" stop-color="#E68E09"/>
</linearGradient>
<linearGradient id="paint14_linear_34_14077" x1="141.148" y1="136.085" x2="138.853" y2="134.68" gradientUnits="userSpaceOnUse">
<stop stop-color="#A36509"/>
<stop offset="1" stop-color="#E68E09"/>
</linearGradient>
<linearGradient id="paint15_linear_34_14077" x1="138.179" y1="139.147" x2="135.744" y2="137.502" gradientUnits="userSpaceOnUse">
<stop stop-color="#A36509"/>
<stop offset="1" stop-color="#E68E09"/>
</linearGradient>
<linearGradient id="paint16_linear_34_14077" x1="54.1413" y1="85.6172" x2="34.8532" y2="92.7813" gradientUnits="userSpaceOnUse">
<stop stop-color="#FFC000"/>
<stop offset="1" stop-color="#FC880B"/>
</linearGradient>
<linearGradient id="paint17_linear_34_14077" x1="51.7861" y1="78.2371" x2="31.8116" y2="73.2999" gradientUnits="userSpaceOnUse">
<stop stop-color="#2EAFFF"/>
<stop offset="1" stop-color="#0969E6"/>
</linearGradient>
<linearGradient id="paint18_linear_34_14077" x1="41.6024" y1="83.063" x2="21.1313" y2="85.1338" gradientUnits="userSpaceOnUse">
<stop stop-color="#FF7A45"/>
<stop offset="1" stop-color="#D43939"/>
</linearGradient>
<linearGradient id="paint19_linear_34_14077" x1="66.8223" y1="66.0526" x2="60.254" y2="46.5536" gradientUnits="userSpaceOnUse">
<stop stop-color="#FFC000"/>
<stop offset="1" stop-color="#FC880B"/>
</linearGradient>
<linearGradient id="paint20_linear_34_14077" x1="74.1597" y1="63.681" x2="79.7115" y2="43.8686" gradientUnits="userSpaceOnUse">
<stop stop-color="#2EAFFF"/>
<stop offset="1" stop-color="#0969E6"/>
</linearGradient>
<linearGradient id="paint21_linear_34_14077" x1="69.8607" y1="53.5686" x2="68.4196" y2="33.0436" gradientUnits="userSpaceOnUse">
<stop stop-color="#FF7A45"/>
<stop offset="1" stop-color="#D43939"/>
</linearGradient>
<clipPath id="clip0_34_14077">
<rect width="147.928" height="146.143" fill="white" transform="matrix(-0.999833 -0.0182926 -0.0182926 0.999833 150.577 2.70593)"/>
</clipPath>
</defs>
</svg>
