<svg width="28" height="38" viewBox="0 0 28 38" fill="none" xmlns="http://www.w3.org/2000/svg">
<path d="M0.0345044 28.7676L2.28061 26.5415V30.9868L0.0345044 28.7676ZM0 5.60785L0.0517514 0.77963L7.03503 7.71079C7.59229 7.34689 8.19104 7.04961 8.81879 6.82516C9.30373 6.65269 9.8039 6.52561 10.3127 6.44561L8.83949 4.97526V0L13.9838 5.09151V10.395C12.8996 9.8229 11.6387 9.67337 10.4489 9.97584C9.25916 10.2783 8.22657 11.0109 7.55414 12.0296C6.88171 13.0483 6.61808 14.2795 6.81507 15.481C7.01206 16.6826 7.65542 17.7677 8.61868 18.523C9.51996 18.1297 10.5195 18.0133 11.4882 18.1889C12.4569 18.3644 13.3503 18.8239 14.0528 19.5078L18.1931 23.6111C18.5241 23.923 18.9665 24.092 19.4231 24.0811C19.8798 24.0702 20.3134 23.8803 20.6289 23.553C20.7967 23.4023 20.9314 23.2191 21.0249 23.0148C21.1184 22.8105 21.1686 22.5894 21.1725 22.365C21.1764 22.1407 21.1338 21.918 21.0475 21.7106C20.9611 21.5033 20.8327 21.3156 20.6703 21.1594L16.5301 17.0561C15.8505 16.384 15.3844 15.5294 15.1892 14.5978C14.9939 13.6663 15.0782 12.6984 15.4315 11.8137C15.7848 10.929 16.3918 10.1662 17.1774 9.61942C17.9631 9.07261 18.8931 8.76572 19.8526 8.73662C19.8884 7.8632 20.1601 7.01532 20.6393 6.28147C20.8143 7.34288 21.3412 8.31624 22.1367 9.04778L27.0222 4.22298L23.4202 9.92315H23.4409L23.3684 9.99154L25.6318 12.2381L23.3857 14.4607L21.2879 12.3851C20.9593 12.0598 20.5138 11.8771 20.0493 11.8771C19.5848 11.8771 19.1393 12.0598 18.8107 12.3851C18.4835 12.7107 18.2998 13.1515 18.2998 13.611C18.2998 14.0705 18.4835 14.5113 18.8107 14.8369L22.361 18.3554L22.9613 18.947C24.7313 20.7046 24.4863 23.0195 22.2713 25.1943C20.0562 27.369 20.277 27.1707 18.821 28.6308L15.1051 24.9515L13.863 23.7239L11.8412 21.7543C11.6785 21.5934 11.4855 21.4657 11.273 21.3787C11.0606 21.2916 10.8329 21.2469 10.6031 21.2471C10.3732 21.2472 10.1456 21.2923 9.93329 21.3796C9.72097 21.4669 9.5281 21.5948 9.36566 21.7561C9.20323 21.9173 9.07442 22.1086 8.9866 22.3191C8.89878 22.5297 8.85366 22.7553 8.85382 22.9831C8.85398 23.2109 8.89942 23.4365 8.98754 23.6469C9.07565 23.8573 9.20472 24.0485 9.36738 24.2095L12.621 27.434L12.9177 27.7246L13.5146 28.3162C15.3121 30.0977 15.0396 32.3887 12.8452 34.5635L9.39499 38L4.5267 33.1102V28.7094L8.78774 32.9187C9.41914 33.5445 10.3472 33.6881 11.1719 32.8709C11.9965 32.0536 11.8619 31.1304 11.2547 30.5183L7.11438 26.415C6.44751 25.7421 5.99186 24.892 5.80263 23.9677C5.6134 23.0434 5.69873 22.0845 6.04826 21.2072C6.05248 21.1919 6.05827 21.177 6.06551 21.1628L6.11381 21.0431L3.40538 18.3623L0.0655553 15.0523V10.0497L3.35363 13.305C3.54335 12.1781 3.96624 11.1024 4.59571 10.1454L0 5.60785Z" fill="#E8242A"/>
</svg>
