<svg width="22" height="24" viewBox="0 0 22 24" fill="none" xmlns="http://www.w3.org/2000/svg">
<path d="M1.66699 20.1667V5.23333C1.66699 3.92654 1.66699 3.27315 1.92131 2.77402C2.14501 2.33498 2.50197 1.97802 2.94101 1.75432C3.44014 1.5 4.09354 1.5 5.40033 1.5H16.6003C17.9071 1.5 18.5605 1.5 19.0596 1.75432C19.4987 1.97802 19.8556 2.33498 20.0793 2.77402C20.3337 3.27315 20.3337 3.92654 20.3337 5.23333V17.8333H4.00033C2.71166 17.8333 1.66699 18.878 1.66699 20.1667ZM1.66699 20.1667C1.66699 21.4553 2.71166 22.5 4.00033 22.5H20.3337M7.50033 6.16667H14.5003M7.50033 10.8333H14.5003M19.167 17.8333V22.5" stroke-width="2" stroke-linecap="round" stroke-linejoin="round"/>
</svg>
