<svg width="36" height="36" viewBox="0 0 36 36" fill="none" xmlns="http://www.w3.org/2000/svg">
<rect width="36" height="36" rx="6" fill="#F26D21"/>
<path d="M23.8333 23.8334H23.845M24.3 20.3334H25C26.0872 20.3334 26.6308 20.3334 27.0596 20.511C27.6313 20.7478 28.0856 21.2021 28.3224 21.7738C28.5 22.2026 28.5 22.7462 28.5 23.8334C28.5 24.9206 28.5 25.4642 28.3224 25.893C28.0856 26.4647 27.6313 26.919 27.0596 27.1558C26.6308 27.3334 26.0872 27.3334 25 27.3334H11C9.9128 27.3334 9.3692 27.3334 8.94041 27.1558C8.36867 26.919 7.91443 26.4647 7.67761 25.893C7.5 25.4642 7.5 24.9206 7.5 23.8334C7.5 22.7462 7.5 22.2026 7.67761 21.7738C7.91443 21.2021 8.36867 20.7478 8.94041 20.511C9.3692 20.3334 9.9128 20.3334 11 20.3334H11.7M18 21.5001V8.66675M18 21.5001L14.5 18.0001M18 21.5001L21.5 18.0001" stroke="white" stroke-width="2" stroke-linecap="round" stroke-linejoin="round"/>
</svg>
