<svg width="21" height="20" viewBox="0 0 21 20" fill="none" xmlns="http://www.w3.org/2000/svg">
<path d="M18.25 6.31669H13.6C13.275 6.31669 13.0167 6.05836 13.0167 5.73336C13.0167 5.40836 13.275 5.15002 13.6 5.15002H18.25C18.575 5.15002 18.8333 5.40836 18.8333 5.73336C18.8333 6.05836 18.575 6.31669 18.25 6.31669Z" fill="white"/>
<path d="M5.85 6.31669H2.75C2.425 6.31669 2.16667 6.05836 2.16667 5.73336C2.16667 5.40836 2.425 5.15002 2.75 5.15002H5.85C6.175 5.15002 6.43333 5.40836 6.43333 5.73336C6.43333 6.05836 6.16667 6.31669 5.85 6.31669Z" fill="white"/>
<path d="M11.4917 5.73332C11.4917 7.13704 10.3537 8.27498 8.95 8.27498C7.54628 8.27498 6.40833 7.13704 6.40833 5.73332C6.40833 4.32959 7.54628 3.19165 8.95 3.19165C10.3537 3.19165 11.4917 4.32959 11.4917 5.73332Z" stroke="white" stroke-width="1.5"/>
<path d="M18.25 14.8417H15.15C14.825 14.8417 14.5667 14.5834 14.5667 14.2584C14.5667 13.9334 14.825 13.675 15.15 13.675H18.25C18.575 13.675 18.8333 13.9334 18.8333 14.2584C18.8333 14.5834 18.575 14.8417 18.25 14.8417Z" fill="white"/>
<path d="M7.4 14.8417H2.75C2.425 14.8417 2.16667 14.5834 2.16667 14.2584C2.16667 13.9334 2.425 13.675 2.75 13.675H7.4C7.725 13.675 7.98333 13.9334 7.98333 14.2584C7.98333 14.5834 7.71667 14.8417 7.4 14.8417Z" fill="white"/>
<path d="M14.5917 14.2666C14.5917 15.6704 13.4537 16.8083 12.05 16.8083C10.6463 16.8083 9.50833 15.6704 9.50833 14.2666C9.50833 12.8629 10.6463 11.725 12.05 11.725C13.4537 11.725 14.5917 12.8629 14.5917 14.2666Z" stroke="white" stroke-width="1.5"/>
</svg>
