 <svg width="22" height="24" viewBox="0 0 22 24" fill="none" xmlns="http://www.w3.org/2000/svg">
<path d="M6.49998 17.8333H9.41665M6.49998 13.1667H12.3333M6.49998 8.5H7.66665M11.1666 1.5H5.56665C4.25986 1.5 3.60646 1.5 3.10734 1.75432C2.66829 1.97802 2.31134 2.33498 2.08763 2.77402C1.83331 3.27315 1.83331 3.92654 1.83331 5.23333V18.7667C1.83331 20.0735 1.83331 20.7269 2.08763 21.226C2.31134 21.665 2.66829 22.022 3.10734 22.2457C3.60646 22.5 4.25986 22.5 5.56665 22.5H7.66665M11.1666 1.5L18.1666 8.5M11.1666 1.5V4.76667C11.1666 6.07346 11.1666 6.72685 11.421 7.22598C11.6447 7.66502 12.0016 8.02198 12.4407 8.24568C12.9398 8.5 13.5932 8.5 14.9 8.5H18.1666M18.1666 8.5V9.66667M12.3333 22.5L14.6958 22.0275C14.9018 21.9863 15.0048 21.9657 15.1008 21.928C15.1861 21.8946 15.2671 21.8512 15.3422 21.7989C15.4268 21.7398 15.5011 21.6656 15.6496 21.517L20.5 16.6667C21.1443 16.0223 21.1443 14.9777 20.5 14.3333C19.8556 13.689 18.811 13.689 18.1666 14.3333L13.3163 19.1837C13.1677 19.3322 13.0935 19.4065 13.0345 19.4911C12.9821 19.5662 12.9387 19.6473 12.9053 19.7325C12.8676 19.8285 12.847 19.9315 12.8058 20.1375L12.3333 22.5Z" stroke-width="2" stroke-linecap="round" stroke-linejoin="round"/>
</svg>
