<svg width="22" height="24" viewBox="0 0 22 24" fill="none" xmlns="http://www.w3.org/2000/svg">
<path d="M18.1666 8.5L11.1666 1.5M18.1666 8.5H14.9C13.5932 8.5 12.9398 8.5 12.4407 8.24568C12.0016 8.02198 11.6447 7.66502 11.421 7.22598C11.1666 6.72685 11.1666 6.07346 11.1666 4.76667V1.5M18.1666 8.5V10.8333M11.1666 1.5H5.56665C4.25986 1.5 3.60646 1.5 3.10734 1.75432C2.66829 1.97802 2.31134 2.33498 2.08763 2.77402C1.83331 3.27315 1.83331 3.92654 1.83331 5.23333V18.7667C1.83331 20.0735 1.83331 20.7269 2.08763 21.226C2.31134 21.665 2.66829 22.022 3.10734 22.2457C3.60646 22.5 4.25986 22.5 5.56665 22.5H9.99998M6.49998 17.8333H8.83331M6.49998 13.1667H11.1666M6.49998 8.5H7.66665M18.48 20.48L20.5 22.5M19.3333 18.4167C19.3333 20.0275 18.0275 21.3333 16.4166 21.3333C14.8058 21.3333 13.5 20.0275 13.5 18.4167C13.5 16.8058 14.8058 15.5 16.4166 15.5C18.0275 15.5 19.3333 16.8058 19.3333 18.4167Z" stroke-width="2" stroke-linecap="round" stroke-linejoin="round"/>
</svg>
