<svg width="20" height="16" viewBox="0 0 20 16" fill="none" xmlns="http://www.w3.org/2000/svg">
<path d="M1.02878 4L6.48356 7.645C7.76421 8.49627 8.40454 8.9219 9.09639 9.0873C9.7078 9.23347 10.3451 9.23347 10.9565 9.0873C11.6483 8.9219 12.2887 8.49627 13.5693 7.645L18.9736 4.04005M5.8 15H14.2C15.8802 15 16.7202 15 17.362 14.673C17.9265 14.3854 18.3854 13.9265 18.673 13.362C19 12.7202 19 11.8802 19 10.2V5.8C19 4.11984 19 3.27976 18.673 2.63803C18.3854 2.07354 17.9265 1.6146 17.362 1.32698C16.7202 1 15.8802 1 14.2 1H5.8C4.11984 1 3.27976 1 2.63803 1.32698C2.07354 1.6146 1.6146 2.07354 1.32698 2.63803C1 3.27976 1 4.11984 1 5.8V10.2C1 11.8802 1 12.7202 1.32698 13.362C1.6146 13.9265 2.07354 14.3854 2.63803 14.673C3.27976 15 4.11984 15 5.8 15Z" stroke="#6D6D6D" stroke-width="1.5" stroke-linecap="round" stroke-linejoin="round"/>
</svg>
