<svg width="21" height="20" viewBox="0 0 21 20" fill="none" xmlns="http://www.w3.org/2000/svg">
<path d="M1.5 3.5C1.5 12.0604 8.43959 19 17 19C17.3862 19 17.7691 18.9859 18.1483 18.9581C18.5834 18.9262 18.8009 18.9103 18.999 18.7963C19.163 18.7019 19.3185 18.5345 19.4007 18.364C19.5 18.1582 19.5 17.9181 19.5 17.438V14.6207C19.5 14.2169 19.5 14.015 19.4335 13.842C19.3749 13.6891 19.2795 13.553 19.1559 13.4456C19.016 13.324 18.8262 13.255 18.4468 13.117L15.24 11.9509C14.7985 11.7904 14.5777 11.7101 14.3683 11.7237C14.1836 11.7357 14.0059 11.7988 13.8549 11.9058C13.6837 12.0271 13.5629 12.2285 13.3212 12.6314L12.5 14C9.85014 12.7999 7.7019 10.6489 6.5 8L7.86863 7.17882C8.27145 6.93713 8.47286 6.81628 8.59423 6.64506C8.70125 6.49408 8.76427 6.31637 8.77629 6.1317C8.78992 5.92227 8.70965 5.70153 8.54911 5.26005L7.38299 2.05321C7.245 1.67376 7.17601 1.48403 7.05442 1.3441C6.94701 1.22049 6.81089 1.12515 6.65802 1.06645C6.48496 1 6.28308 1 5.87932 1H3.06201C2.58188 1 2.34181 1 2.13598 1.09925C1.9655 1.18146 1.79814 1.33701 1.7037 1.50103C1.58968 1.69907 1.57375 1.91662 1.54189 2.35173C1.51413 2.73086 1.5 3.11378 1.5 3.5Z" stroke="#6D6D6D" stroke-width="1.5" stroke-linecap="round" stroke-linejoin="round"/>
</svg>
