<svg width="20" height="20" viewBox="0 0 20 20" fill="none" xmlns="http://www.w3.org/2000/svg">
<path d="M8.30093 11.695L18.102 1.89754M8.57951 12.1356L10.8019 16.5805C11.339 17.6546 11.6075 18.1917 11.9458 18.3357C12.2394 18.4607 12.575 18.4381 12.8492 18.2748C13.1651 18.0867 13.3591 17.5185 13.7472 16.382L17.9463 4.08447C18.2845 3.09421 18.4535 2.59908 18.3378 2.27154C18.2371 1.9866 18.013 1.76246 17.7281 1.66179C17.4005 1.54607 16.9054 1.71514 15.9151 2.05328L3.61763 6.25242C2.48114 6.64049 1.91289 6.83453 1.72478 7.15044C1.56153 7.42459 1.53891 7.76019 1.66389 8.05377C1.80791 8.39206 2.34498 8.6606 3.41912 9.19767L7.86397 11.4201C8.04096 11.5086 8.12945 11.5528 8.20614 11.6119C8.27419 11.6644 8.3352 11.7254 8.38765 11.7935C8.44676 11.8701 8.49101 11.9586 8.57951 12.1356Z" stroke="white" stroke-width="1.5" stroke-linecap="round" stroke-linejoin="round"/>
</svg>
