<svg width="40" height="40" viewBox="0 0 40 40" fill="none" xmlns="http://www.w3.org/2000/svg">
<path fill-rule="evenodd" clip-rule="evenodd" d="M19.1146 12.8672C19.2307 12.7508 19.3687 12.6585 19.5205 12.5955C19.6724 12.5324 19.8352 12.5 19.9996 12.5C20.164 12.5 20.3268 12.5324 20.4787 12.5955C20.6306 12.6585 20.7685 12.7508 20.8846 12.8672L25.8846 17.8672C26.0008 17.9835 26.093 18.1214 26.1559 18.2733C26.2188 18.4251 26.2512 18.5879 26.2512 18.7522C26.2512 18.9166 26.2188 19.0793 26.1559 19.2312C26.093 19.383 26.0008 19.521 25.8846 19.6372C25.7684 19.7535 25.6304 19.8456 25.4786 19.9085C25.3267 19.9714 25.164 20.0038 24.9996 20.0038C24.8353 20.0038 24.6725 19.9714 24.5207 19.9085C24.3688 19.8456 24.2308 19.7535 24.1146 19.6372L21.2496 16.7697V26.2522C21.2496 26.5838 21.1179 26.9017 20.8835 27.1361C20.6491 27.3705 20.3311 27.5022 19.9996 27.5022C19.6681 27.5022 19.3502 27.3705 19.1157 27.1361C18.8813 26.9017 18.7496 26.5838 18.7496 26.2522V16.7697L15.8846 19.6372C15.6499 19.872 15.3316 20.0038 14.9996 20.0038C14.6677 20.0038 14.3493 19.872 14.1146 19.6372C13.8799 19.4025 13.748 19.0842 13.748 18.7522C13.748 18.4203 13.8799 18.102 14.1146 17.8672L19.1146 12.8672Z" fill="#F58A4D"/>
<path d="M11.015 8.355C13.5137 6.20034 16.7006 5.01035 20 5C26.725 5 32.3075 10 32.915 16.4475C36.895 17.01 40 20.3425 40 24.4325C40 28.9225 36.255 32.5 31.7175 32.5H9.4525C4.27 32.5 0 28.415 0 23.295C0 18.8875 3.165 15.2375 7.355 14.3125C7.7125 12.155 9.1 10.005 11.015 8.355ZM12.6475 10.2475C10.755 11.88 9.765 13.8475 9.765 15.3875V16.5075L8.6525 16.63C5.16 17.0125 2.5 19.88 2.5 23.295C2.5 26.9625 5.575 30 9.4525 30H31.7175C34.95 30 37.5 27.47 37.5 24.4325C37.5 21.3925 34.95 18.8625 31.7175 18.8625H30.4675V17.6125C30.47 12.0625 25.82 7.5 20 7.5C17.2997 7.51079 14.6921 8.48608 12.6475 10.25V10.2475Z" fill="#F58A4D"/>
</svg>
